<?xml version="1.0" encoding="UTF-8"?>
<svg version="1.1" viewBox="0 0 1600 1600" width="500" height="500" xmlns="http://www.w3.org/2000/svg">
<path transform="translate(800,253)" d="m0 0h7l18 8 24 11 26 11 66 28 29 13 24 10 16 7 3 3-1 6-1 5 1 1 9-1 16-5 33-13 29-11 6-3 5 1 8 7 15 15 7 8 15 15 7 8 12 13 14 14-1 4-5 6-6 1-4 1-10 8-3 9-10 38-9 30-1 4 10 3 2 1 3 11-1 15-11-1-47-8-19-5-7-2h-4l7 8 6 5 7 8 12 13 7 8 14 15 4 5 2 1 2-6 6-11 11-14 9-11 5-7 15-10 25-13 21-8 18-5 19-3 13-1h21l7 2 2 5v30l-2 24-3 15-6 20-6 16-12 23-9 12-12 14-12 11-16 11-3 2 1 4 4 9v7l18-5 18-3 12-1h11l20 2 14 4 22 9 4 3-2 12-7 19-10 18-7 9-9 10-8 8-13 10-16 9-13 5-16 3-3 35-6 41-6 28-7 24-11 31-11 24-16 30-12 20-11 16-9 12-14 17-24 26-10 9-7 5 1 4 6 11 12 17 14 20 16 23 14 22 14 20 10 13 5 7v5l-1 1h-129l-138-5-33-1h-17l-11 12-7 7-8 6-9 5-15 6-9 2h-11l-12-3-16-7-11-7-11-9-8-9-2-3h-18l-89 4-75 2-72 1h-53l-11-1-1-3 7-9 11-13 13-18 19-28 11-16 13-21 11-17 9-14 1-4-14-11-24-24-7-8-13-16-13-18-11-18-9-16-13-24-12-26-11-28-7-24-7-28-5-27-3-30-1-17-1-2-17-4-19-8-13-9-12-11-8-8-14-19-10-18-5-15-2-7v-6l12-6 23-7 14-2 13-1h13l21 2 19 5h3l5-14-1-5-13-9-13-12-11-12-9-11-10-15-9-19-7-22-5-25-2-19v-33l3-5 8-2h37l26 4 24 8 17 8 17 11 10 8 9 8 11 14 8 13 4 9v2l5-3 12-13 13-15 11-12 12-12 8-7 8-8 20-15 20-14 21-13 26-13 15-6 12-3 2-2 1-25v-19l-15-7-42-18-11-6-5-4-3-9v-10l5-4 27-12 26-11 37-16 35-15 45-19 32-14zm208 116-21 8-14 6-3 4 3 48 2 19 3 6 12 9 7 2 9-4 13-3 2-4 5-33 5-30v-6l-5-6-2-9-7-5-4-2zm-596 327-2 5 1 5 8 5 3-1 1-3v-9l-2-2zm-8 4 3 3-1-3z" fill="#133647"/>
<path transform="translate(690,493)" d="m0 0h21l61 2 140 1 1 1 1 31 1 137h190l1 1v159l-1 51-1 1-190-1v59l-1 81-11 7-4 3h-2l-4-38v-133l4-1 22 1 83 1h34l49-1 1-61v-101l-1-4-12-1-149-1-16-1-5-2-4-8-3-11-1-7-1-31-1-11-1-47-2 1-3 9-3 1-2 5-7 8-3 5h-2l-1 4-6 11h-5l-5-5-4-2-14-3-3-6 3 10v12l-5 10-9 8-7 3h-3l1 4 4 3 1 5v62l-1 29 18-6 16-8 10-9 5-7-1-6-7-11-8-8-7-5-5-9v-7l3-8h12l10 4 10 6 10 9 7 11 5 12 1 4v7l-4 14-8 11-9 9-10 6-18 7-8 2h-4l5 5 10 8 10 9 7 10 6 15v20l-4 10-4 6-6 7-13 9-13 6-6 2 10 8 10 9 5 10 2 7v19l-7 14-8 9-6 4-10 5 7 9 6 13 2 15-1 2h-8l-3-4-4-11-1-3-4-2-4-3-2 48-2 10-3 6-4-2-3-4-4-14-1-47-1-3-6 11-7 14h-3l-3-3v-9l5-10 4-5 7-4-17-11-6-5-6-10-4-14v-12l5-13 9-12 10-6-4-3-17-10-11-8-7-8-5-10-2-10v-14l3-12 7-12 6-5 2 4v21l8 2 1 13 3 7 7 9 10 8 13 7v-64l2-2 8 6 8 7h3v26l-1 24h3v-2l9-5 10-9 5-6 4-8-1-7-5-12-6-7-14-9-5-1-1 2-5-6-6-2-16-3-6-3-1-4-3-1v-2l-9-3-8-2-12-5-16-8-10-9-7-9-3-4 3 9 8 13 2 10-1 6-2 3-2 10-3 5-7 6-4 4-11 6-19 9-9 3-5 3-12 2-8 2-15 3-38 8-21 5-19 4-9 1-4 3-1 5-5 2-2 5 1 1 41 1 17 1h126l1 1 2 87v80l1 4-4-2-13-8-9-5 1-133v-3h-181l-12 1-1-1 1-209 6-2 74-1 103-1 9-1 1-150z" fill="#25C6BA"/>
<path transform="translate(891,568)" d="m0 0h1l1 48 1 11 1 31 3 14 4 11 5 2 16 1 149 1 12 1 2 5v101l-1 61-1 1-49 1h-34l-83-1-25-1v133l4 39-10 7-7 4-5 5-5 2-5 5-11 9-12 11-7 7-3 1-3 5-5 5-7 9-6 8-5 5-5-2-11-11-2-1v-2l-4-2-10-10-8-7-12-11-16-15-11-9-7-7-6-5-1-5v-80l-2-87h-126l-17-1-41-1-2-2 1-3h2v-2l5-3 1-5 5-3 24-4 15-4 47-10 35-7 6-4 13-4 17-9 9-5 6-5 3-4 2-1 2-6 2-9 2-6-1-6-2-6-7-12-3-9h3l7 11 8 8 14 8 9 4 10 4 12 3 6 5 2 4 13 4 11 2 5 3 4 3 7 1 13 9 6 7 5 12 1 7-6 11-11 11-10 6h-2v2h-3v-50l-2 1-8-7-8-6-1 1-1 64-5-2-11-6-11-10-6-9-1-4v-13l-6-1-3-3v-19l-1-3-5 4-7 12-3 12v14l3 13 7 11 9 8 22 13 5 3-4 4-8 5-7 10-5 13v12l5 16 7 10 14 9 7 5-3 2-5 3-7 11-1 3v9l4 3 8-16 5-9 2-2 1 5 1 47 5 16 3 3h2l3-7 1-8 2-49 9 6 4 8 4 9 8 1-1-13-4-11-6-10-4-6 14-7 7-6 6-9 4-9v-19l-5-14-8-9-14-11 2-2 10-3 13-7 11-9 6-9 4-10v-20l-6-15-8-11-11-10-12-9v-2l15-4 19-8 9-7 7-7 6-9 4-14v-7l-4-12-6-11-9-10-11-7-8-4-4-1h-12l-2 7v7l6 10 8 6 9 10 5 9-1 6-11 12-11 7-17 7-10 2v-91l-2-6-3-2v-4l10-4 8-7 5-10v-12l-3-8 1-3 3 5v2l15 2 4 2 1 4 8 1 7-14h2l2-5 9-11 4-5 2-8z" fill="#12AEA9"/>
<path transform="translate(690,493)" d="m0 0h21l61 2 140 1 1 1 1 31 1 137h190l1 1v159l-1 51-1 1-190-1v59l-1 81-11 7-4 3h-2l-4-38v-133l4-1 22 1 83 1h34l49-1 1-61v-101l-1-4-12-1-149-1-16-1-5-2-4-8-3-11-1-7-1-31-1-103 1-5h-17l-10-1-152-1v123l-1 30-2 9-3 5-7 2-49 1h-133l1 58v83l-1 28 6-1h186l1 1 2 87v80l1 4-4-2-13-8-9-5 1-133v-3h-181l-12 1-1-1 1-209 6-2 74-1 103-1 9-1 1-150z" fill="#FCFCFC"/>
<path transform="translate(630,1013)" d="m0 0 5 1 16 8 27 14 18 11 34 24 10 9 8 7 11 11 14 16v2h2l10 15 6 12 5 16 2 21 3 10 4-2 3-5 5-30 3-15 9-15 5-7 5-5 12-14 9-11 6-7 11-9 14-11 20-13 23-13 10-6 17-8 12-5 5 1 9 11 12 14 9 11 10 14 12 14 5 5 2 4-25 4-35 9-24 8-32 13-20 9-14 8-10 6-13 10-7 7-4 6 20-7 34-16 12-6 14-5 22-6 15-4 16-6 35-12 9-4 4-3h7l7 4 10 10 9 11 8 11 9 11v1l-9 1-55 1-27 1-50 4-16 3-22 7-29 7-16 2-12 5-14 10-15 14-8 8-4-1-9-7-11-10-11-8-11-5-10-4-8-3-19-6-13-4-15-4-20-4-48-4-90-2h-9l-3-1 1-4 5-3h2v-2l5-5 8-13 7-9 6-7 8-6 8 1 8 5 18 5 18 4 4 2-1 3 30 9 22 5 26 10 8 4 33 15 19 11 5 3-6-8-5-6-17-13-6-4-14-9-23-12-16-7-17-6-27-8-14-4-16-3-17-4-9-2-4-2 1-4 7-7 14-19 11-14 14-19z" fill="#F9FAFB"/>
<path transform="translate(799,278)" d="m0 0 6 1 10 5 26 10 18 8 31 14 22 9 19 8 17 8 3 3 1 10h5l3-6 4-1 15 4 3 3-8 4-10 4-3 2v19l1 16v33l-1 32v42l1 22 2 15h-23v-17l4-44 2-32v-47l-2-27v-6l-12 4-10 4h-7l-11-3h-5l9 9v73l-4 2-22-3-33-5-19-2h-46l-33 4-22 4-25 5-11 3-5-1v-79l-18-8-10-5-29-12-9-5 1-3 27-12 20-8 36-15 26-11 21-9 35-14z" fill="#FAFBFB"/>
<path transform="translate(891,568)" d="m0 0h1l1 48 1 11 1 31 3 14 4 11 5 2 16 1 149 1 12 1 2 5v101l-1 61-1 1-49 1h-34l-83-1 4-2-13-5-3-3 1-9-8-7v-11l-5-2-6-7-8-17-3-6v-9l3-5 5-5 5-4 4-4 5-10 2-13-4-16-1-8h-2l-1 3v-11l-4-12-6-11-9-10-11-7-8-4-4-1h-12l-2 7v7l6 10 8 6 9 10 5 9-1 6-11 12-11 7-17 7-10 2v-91l-2-6-3-2v-4l10-4 8-7 5-10v-12l-3-8 1-3 3 5v2l15 2 4 2 1 4 8 1 7-14h2l2-5 9-11 4-5 2-8z" fill="#12AEA9"/>
<path transform="translate(979,478)" d="m0 0 4 2 14 11 10 7 25 20 14 11 14 12 13 12 9 9 9 11 15 20 10 15 17 32 5 9 4-5 3-5-1-8-9-19-8-15-4-10 1-7 8-15 11-14 9-11 5-7 15-10 25-13 21-8 18-5 19-3 13-1h21l7 2 2 5v30l-2 24-3 15-6 20-4 11h-2l-2-2-9 1-2 4-11 14-4 4h-2v2l-10 3h-7l-21 5h-5l-2 2-13 1-7-2 3-4-1-1-1-3-7 2-8 6-11 12-10 14-6 3 6 21 5 23 4 16 4 23 2 27v43l-3 26-6 28-7 24-6 17-6 15-8 16-11 20-10 16-7 10-9 12-12 14-14 15-7 7-11 9-13 9-5-5-6-8 1-3 10-5 13-12 6-5 7-8 9-10 13-17 8-12 11-18 8-14 9-19 9-24 4-11 7-30 5-30 1-17v-28l-2-25-6-37-6-24-13-33-8-18-10-18-10-15-10-14-11-13-9-10-21-21-8-7-12-11-6-4-11-8-10-7-11-7-3-2z" fill="#7EC459"/>
<path transform="translate(792,646)" d="m0 0 7 1 15 1 2 4v62l-1 29 18-6 16-8 10-9 5-7-1-6-7-11-8-8-7-5-5-9v-7l3-8h12l10 4 10 6 10 9 7 11 5 12 1 4v7l-4 14-8 11-9 9-10 6-18 7-8 2h-4l5 5 10 8 10 9 7 10 6 15v20l-4 10-4 6-6 7-13 9-13 6-6 2 10 8 10 9 5 10 2 7v19l-7 14-8 9-6 4-10 5 7 9 6 13 2 15-1 2h-8l-3-4-4-11-1-3-4-2-4-3-2 48-2 10-3 6-4-2-3-4-4-14-1-47-1-3-6 11-7 14h-3l-3-3v-9l5-10 4-5 7-4-17-11-6-5-6-10-4-14v-12l5-13 9-12 10-6-4-3-17-10-11-8-7-8-5-10-2-10v-14l3-12 7-12 6-5 2 4v21l8 2 1 13 3 7 7 9 10 8 13 7v-64l2-2 8 6 8 7h3v26l-1 24h3v-2l9-5 10-9 5-6 4-8-1-7-5-12-6-7-14-9-5-1-1 2-5-6-6-2-16-3-6-3-1-4-3-1v-2l-9-3-8-2-12-5-16-8-10-9-7-9-4-10v-17l3-10 7-12 11-10 11-7 9-4 6-1h11l3 2v7l-3 7-6 8-9 6-5 4-6 9-1 8 3 10 8 7 10 6 21 8 9 3-1-29v-43l1-24z" fill="#FAFBFB"/>
<path transform="translate(535,1160)" d="m0 0 5 2 4 2h86l23 2 54 8 26 6 17 6 13 7 11 7 11 6 11 7 6 4 6-2 9-6 20-13 10-5 22-7 18-6 34-7 53-6 33-1h61l4-3h6l9 8 12 16 8 11 11 15 10 15v2l-14-1-24-4-61-6-60-3-38-1-36 2-22 2-30 6-8 4-8 6-8 7-6 3-6 1h-9l-9-4-10-10-13-7-21-5-18-2-37-2h-33l-63 3-29 3-45 4-12 2-20 2h-13l6-9 12-15 10-14 8-10 11-12 8-6z" fill="#BFD0D8"/>
<path transform="translate(894,713)" d="m0 0h2l5 19 1 8-2 10-6 11-3 1-2 4-6 4-4 5-1 3v9l8 17 5 9 6 5 2 1 1 11 8 7v6 4l11 5 6 1-3 2h-29v133l4 39-10 7-7 4-5 5-5 2-5 5-11 9-12 11-7 7-3 1-3 5-5 5-7 9-6 8-5 5-5-2-11-11-2-1v-2l-4-2-10-10-8-7-12-11-16-15-5-5 5 2h2l3-9 5-10 10-10h2v-2l7-6 1-2h2v-2h2l1-3h2l2-5 3-11 2-7 9-18h1l1 5 1 47 5 16 3 3h2l3-7 1-8 2-49 9 6 4 8 4 9 8 1-1-13-4-11-6-10-4-6 14-7 7-6 6-9 4-9v-19l-5-14-8-9-14-11 2-2 10-3 13-7 11-9 6-9 4-10v-20l-6-15-8-11-11-10-12-9v-2l15-4 19-8 9-7 7-7 6-9z" fill="#078B85"/>
<path transform="translate(316,494)" d="m0 0h37l26 4 24 8 17 8 17 11 10 8 9 8 11 14 8 13 4 9v11l-4 8-10 19-7 16-2 2-4 16-2 4-4-1-16-20-4-3 1 8 4 6v7l-4 3-11 3-5 1v2l-2 1h-11l-12-4-9-4-7-3-9-1-9-3h-2v3l-9-10-10-14-10-19-6-17-5-18-4-24-1-12v-33l3-5z" fill="#7EC459"/>
<path transform="translate(912,497)" d="m0 0h1l1 31 1 137h190l1 1v159l-1 51-1 1-190-1v59l-1 81-11 7-4 3h-2l-4-38v-133l4-1 22 1 83 1h34l49-1 1-61v-101l-1-4-12-1-149-1-16-1-5-2-4-8-3-11-1-7-1-31-1-103 1-5h-17l-10-1-152-1v37h-1v-38h154l29 2 2-5 7-10z" fill="#BFD0D8"/>
<path transform="translate(979,478)" d="m0 0 4 2 14 11 10 7 25 20 14 11 14 12 13 12 9 9 9 11 15 20 10 15 17 32 5 9 4-5 8-13 11-14 14-15 10-11 16-14 14-11 7-6 4-4 11-7 4-3h2l-1 6-6 10-9 11-16 17-7 8-12 13-7 8-19 19-10 13-6 8-5 2 6 21 5 23 4 16 4 23 2 27v43l-3 26-6 28-7 24-6 17-6 15-8 16-11 20-10 16-7 10-9 12-12 14-14 15-7 7-11 9-13 9-5-5-6-8 1-3 10-5 13-12 6-5 7-8 9-10 13-17 8-12 11-18 8-14 9-19 9-24 4-11 7-30 5-30 1-17v-28l-2-25-6-37-6-24-13-33-8-18-10-18-10-15-10-14-11-13-9-10-21-21-8-7-12-11-6-4-11-8-10-7-11-7-3-2z" fill="#F6F8F9"/>
<path transform="translate(324,690)" d="m0 0h13l21 2 19 5h5l12 8 9 8 10 14 10 16v19l-1 1-2 17v10l-6 3-12 3-8 7-6 7-4 2h-18l-3 1-1-2-17-4-19-8-13-9-12-11-8-8-14-19-10-18-5-15-2-7v-6l12-6 23-7 14-2z" fill="#339F5B"/>
<path transform="translate(969,1014)" d="m0 0 5 1 9 11 12 14 9 11 10 14 12 14 5 5 2 4-25 4-35 9-24 8-32 13-20 9-12 7-14 4-9 5-9 6-9 10-16 8-8 7-3 3-5-1v-12l3-20 1-10 9-15 5-7 5-5 12-14 9-11 6-7 11-9 14-11 20-13 23-13 10-6 17-8z" fill="#FBFCFC"/>
<path transform="translate(662,465)" d="m0 0 5 1-1 16-8 5-27 14-23 13-14 10-22 18-10 9-12 11-14 14-9 11-11 15-13 19-10 17-8 17-8 19-11 33-5 21-4 37v42l4 37 7 28 6 18 8 20 7 16 12 22 15 24 12 16 10 11 7 8 11 12 14 12 8 6-1 6-5 10-4-1-12-9-15-12-5-5-9-10-11-13-15-20-8-11-15-25-9-19-4-8-6-14-3-9-3-8-5-15-7-30-3-20-2-25v-19l4-48 2-16 9-30 5-15 8-19 10-22 17-28 12-17 10-13 10-12 22-22 8-7 13-10 14-11 19-14 16-9 18-10 13-6 12-5z" fill="#F5F7F8"/>
<path transform="translate(630,1013)" d="m0 0 5 1 16 8 27 14 18 11 34 24 10 9 8 7 11 11 14 16v2h2l10 15 6 12 4 17v24l-5-2-8-8v-2l-3-1-5-5-7-6-3-4v-2l-4-2v-2h-2v-2l-4-2-13-9-9-6-7-4-9-6-16-7-12-5-13-6-5-1 8 4 10 4 17 9 11 7v2l9 3 11 8 1 5-4-1-7-3-10-6-21-11-16-7-17-6-27-8-14-4-16-3-17-4-9-2-4-2 1-4 7-7 14-19 11-14 14-19z" fill="#FBFBFC"/>
<path transform="translate(912,326)" d="m0 0 10 3 24 11 5 4 1 10h5l3-6 4-1 15 4 3 3-8 4-10 4-3 2v19l1 16v33l-1 32v42l1 22 2 15h-23v-17l4-44 2-32v-47l-2-27v-6l-12 4-10 4h-7l-11-3h-5l9 9v73l-4 2-22-3-33-5-19-2h-46l-19 2h-7v-1l26-4v-3l-2-4 2-5 22-4h11l8-7 7-10 5-9 10-16 9-12 11-18 8-16 6-4 6-1h13l6-3 4-5z" fill="#BFD0D8"/>
<path transform="translate(653,1232)" d="m0 0h55l39 1 15 2 6 5 5 5 11 8 10 4 4 1h7l10-3 19-10 9-6 11-4 6-1 44-2h54l45 2 37 3 52 3 43 2 10 2 6 7 1 6-1 1h-72l-62-4-36-3-19-1-51-1h-56l-7 10-6 7-10 7-13 6-7 2h-17l-14-5-9-5-10-8-5-5-7-8-3-1h-16l-62 2-39 2-28 2-56 3h-80l-14-2 1-5 7-6 3-3 6-1 90-3 74-5z" fill="#07999B"/>
<path transform="translate(749,782)" d="m0 0 2 4v21l8 2 1 13 3 7 7 9 10 8 13 7v-62l2-1 5 3 7 6-1 51-2 3 1 4 15 9 8 4 14 12 6 8 4 12v19l-7 14-8 9-6 4-10 5 7 9 6 13 2 15-1 2h-8l-3-4-4-11-1-3-4-2-4-3-2 48-2 10-3 6-4-2-3-4-4-14-1-47-1-3-6 11-7 14h-3l-3-3v-9l5-10 4-5 7-4-17-11-6-5-6-10-4-14v-12l5-13 9-12 10-6-4-3-17-10-11-8-7-8-5-10-2-10v-14l3-12 7-12z" fill="#FAFBFB"/>
<path transform="translate(910,686)" d="m0 0 162 1 12 1 2 5v101h-1l-1-28v-16l-9 2-5-3-2-9-4-1-2-3v-6l1-2-11 3-11 6-4 3-8 4-1 4-5 3h-2l-2 4-2 1h-6v2l-6 2h-14l-3-1h-15l-9-1-6 1-2 4h-5l-1 3h-2l-2 6v5l-5 1v-2l-6-1-4-6-3-3-2-4-5-3 1-7-6-3 1-6 3-6-1-10v-4l1-7-5-12-4-5v-5l5-3h4v-2h7l-17-2z" fill="#25C6BA"/>
<path transform="translate(894,713)" d="m0 0h2l5 19 1 8-2 10-6 11-3 1-2 4-6 4-4 5-1 3v9l8 17 5 9 6 5 2 1 1 11 8 7v6 4l11 5 6 1-3 2h-29v90l-1 6-2-4-4 10-4 7-8 2-3 6-7 6-6-2-3-5-10-3-4-10-1-3-5-1 1-4 7-1v-2h3l1-4 3-5 4-9v-5l-4 2 1-5v-19l-5-14-8-9-14-11 2-2 10-3 13-7 11-9 6-9 4-10v-20l-6-15-8-11-11-10-12-9v-2l15-4 19-8 9-7 7-7 6-9z" fill="#068D90"/>
<path transform="translate(1270,689)" d="m0 0h11l20 2 14 4 22 9 3 3-3 3-1 8-1 3h-2l-2 4-5 4h-33l-1 4-9 4-7 1-16 9-16 8-20 11-16 10-9 6-9 7-5 1-2-12-1-33 3-10 10-18 10-9 17-10 18-5 18-3z" fill="#7EC459"/>
<path transform="translate(518,832)" d="m0 0h1v24l6-1h186l1 1 2 87v80l1 4-4-2-13-8-9-5 1-133v-3h-189l4-2 4-1 2-9 3-5 3-3z" fill="#BFD0D8"/>
<path transform="translate(692,494)" d="m0 0 48 1 26 1h146l-1 3-7 6-8 13h-19l-10-1-155-1v102l-2 14-4 11-3 1-2 10-3 6-3 2h-4v-167z" fill="#FCFCFC"/>
<path transform="translate(1338,707)" d="m0 0h3l-2 12-7 19-10 18-7 9-9 10-8 8-13 10-16 9-13 5-16 3-1 3v-2l-13-2-8-7-9-3-14-3-10-3v-3l8-4 10-8 20-12 14-8 20-11 16-8 5-3 8-1 3-2h3l1-4 8-1h26l7-8 2-7 1-5z" fill="#339F5B"/>
<path transform="translate(1025,378)" d="m0 0 14 3 31 8 17 4 13 4 59 14 13 4-5 5-4 2-18-4h-12l1 5 6 4v10l-9 31-3 14-2 19-1 1h-6l-6-4-7-9 2-10 7-36 4-30-5-3-6-1h-10l3 7v12l-9 49-3 7h-10l-9-4 3-1 2-14 7-46 3-16-9-3-13-3 4 8-1 11-7 25-1 4v18l2 9 6 5 3 2-11-1-21-7-3-4 1-11 4-19 4-25 3-9 6-5-1-3-11-4-11-1-4-5z" fill="#F4FEFE"/>
<path transform="translate(1275,597)" d="m0 0h5l2 3-1 5-12 23-9 12-12 14-12 11-16 11-4 4-11 4-6 4 2 4-1 12h-2l-1 4-5 4-6 1-6-7-1-9 4-4-3 1-9 1-9-4-8-9-5-9-2-4-2-3-1-5 7-4 11-15 11-12 8-6h6l3 3-1 4-1 1 7 1 11-1 3-2 9-1 16-4h8l9-2v-2l7-6 10-13 2-3z" fill="#339F5B"/>
<path transform="translate(382,578)" d="m0 0 7 6 12 13 9 11 13 14 6 7-1 2-2-2 1 8 4 6v7l-4 3-11 3-5 1v2l-2 1h-11l-12-4-9-4-7-3-9-1-9-3h-2v3l-9-10-10-14-10-19-6-17v-7l7-2 7 1 4 2 8-1 12 1 13 3 7 2 4-1z" fill="#51AE5F"/>
<path transform="translate(1030,1099)" d="m0 0h7l7 4 10 10 9 11 8 11 9 11v1l-9 1-55 1-27 1-50 4-16 3-17 5-30 6-21 3-2-1 5-3 17-6 11-6 22-11 4-4 17-6 22-6 15-4 16-6 35-12 9-4z" fill="#FAFBFC"/>
<path transform="translate(792,646)" d="m0 0 7 1 15 1 2 4v62l-1 29 18-6 16-8 10-9 5-7-1-6-7-11-8-8-7-5-5-9v-7l3-8h12l10 4 10 6 10 9 7 11 5 12 1 4v7l-4 14-8 11-9 9-10 6-18 7-8 2h-4v2l-9 2 3 6 9 8 2 5-5-1-10-5-7-1-1-1 1-12-5-10-5-5v-23l2-19 1-19v-34h-16l-1 69h-1l-1-9v-43l1-24z" fill="#F2FCFC"/>
<path transform="translate(324,690)" d="m0 0h13l21 2 13 3-3 7-1 8-8 6-8 5-5 5v3l2 5h-3l34 16 11 6 15 10 11 9 3 6v8l-2 1-15-9-15-10-22-12-41-21-9-5-6-5-8 1-6 7-6 1-13-1-1 5-1 2-7-14-5-17v-6l12-6 23-7 14-2z" fill="#7EC459"/>
<path transform="translate(654,1235)" d="m0 0h59l36 1 13 2 9 10 8 6 11 4v2l9 1h15l5-3 13-7 5-3 4-5 8-3h8l1 2h-2v2h-2v2l-5 5-6 11-3 1-1 3-11 6-10 4-5 1h-14l-24-8-10-6-5-5-5-6v-4l-4-1v-2h-13l-31 1-60 1-20 2-48 3h-21v2l-10 1h-93l-1-3 7-9 31-1 78-1 47-3h12v-2z" fill="#11ACA8"/>
<path transform="translate(1187,816)" d="m0 0h7l13 4 1 7-10 34-9 29-4 10-4 13-5 12-13 26-7 12-9 17-7 14-13 19-12 16-10 13-9 10-14 14-11 9-12 9h-2l-7-13v-3l13-7 15-14 13-13 9-11 14-19 9-12 6-10 13-22 10-19 6-13 11-27 9-31 5-19z" fill="#FBFDFD"/>
<path transform="translate(762,761)" d="m0 0 7 1 6 3 4 5 3 3 11 3 11 2 5 3 4 3 7 1 13 9 6 7 5 12 1 7-6 11-11 11-10 6h-2v2h-3v-50l-2 1-8-7-8-6-1 1-1 64-5-2-11-6-11-10-6-9-1-4v-13l-6-1-3-3v-19l-1-3-2-1 11-11 8-6z" fill="#F0FAFB"/>
<path transform="translate(794,878)" d="m0 0 6 2 9 4 5 1v2l5 2 8 7 5 8v9l-3 10 7-3 5-10h3l5 5h1l1-13h1v19l-7 14-8 9-6 4-10 5 7 9 6 13 2 15-1 2h-8l-3-4-4-11-1-3-4-2-8-7-12-6 2-1v-6l-12-12 4-3v-5l-8-7-4-7-1-3v-12l4-8 6-7 4-4h2z" fill="#F0FBFB"/>
<path transform="translate(411,816)" d="m0 0h7l2 9 3 24 5 22 3 13 5 14 6 15 9 21 17 33 12 19 8 11 7 11 13 16 2 4 3 1 7 8 11 12 7 8 9 8 8 7-2 6-3 6-3 1-8-6-10-9-13-12-9-11-11-12-9-11-9-13-7-11-6-9-7-11-6-10-6-12-5-11-12-30-9-28-5-19-9-37-3-10v-4z" fill="#F1F5F6"/>
<path transform="translate(531,1163)" d="m0 0h6l4 3h76l25 2 23 4 19 2 15 2 3 3-1 2-4 1h-36l-52 1-24 2-14 2-15 4-7 3-12 5-36 12h-2l-1 7h2l-1 5-11 3h-9l2-7 12-15 10-14 8-10 11-12 3-3z" fill="#FBFCFC"/>
<path transform="translate(388,819)" d="m0 0 4 1 3 4 2 24 7 41 8 28 7 19 10 22 11 23 14 25 7 11 9 14 10 13 9 11 12 14 7 7 7 8 9 8 7 6-1 5-4 8-3 2-12-11-11-12-10-10-11-14-14-18-11-16-13-22-6-10-8-16-12-26-6-16-12-36-7-30-4-24v-28z" fill="#F7F9FA"/>
<path transform="translate(934,666)" d="m0 0h170v8l-5 5-7 6-3 6-3-1-1-3-178-1-5-2-3-6v-7h3v2l9-2v-3l2-1z" fill="#FCFDFD"/>
<path transform="translate(1083,792)" d="m0 0h2v63l-1 1-49 1h-34l-36-2 2-3 14-4 3 1v-2l12-6 9-7 27-15 16-8 11-6 10-6z" fill="#089B9D"/>
<path transform="translate(805,318)" d="m0 0h10l-1 20v12l28 1 2 6 1 17-1 1h-26l-5-1v32l-1 1-22 1-1-1-1-31h-30v-21l1-5 30-1v-30z" fill="#133748"/>
<path transform="translate(1074,1162)" d="m0 0 7 1 10 11 13 18 11 15v3h-9l-15-4-12-4-11-4-3-3-8-4-21-5-7-1-26-1h-80l-19 1-7 1-5-3 4-4 17-4 17-3 43-2 18-2h43l11 1h20l5-3z" fill="#FBFCFC"/>
<path transform="translate(1287,574)" d="m0 0h2v9l-6 17h-2l-2-2-9 1-2 4-11 14-4 4h-2v2l-10 3h-7l-21 5h-5l-2 2-13 1-7-2 3-4-1-1-1-3-7 2-4 2 6-7 8-8 7-8 9-10 11-12 2 1-1 3 9-6 7-2 16-2 1-1h7l11 3 8 1v-2l5-3z" fill="#51AE5F"/>
<path transform="translate(707,856)" d="m0 0h5l2 87v80l1 4-4-2-13-8-9-5 1-133 1-2 8-4 6-9 1-7z" fill="#F0FAFB"/>
<path transform="translate(370,696)" d="m0 0 12 1 12 8 9 8 10 14 10 16v19l-1 1-2 17v10l-4 1-11-6-6-5h3l15 9h1v-8l-4-7-13-10-18-11-33-16-7-3 4-1-3-7 5-3 4-5 11-6 2-2 2-12z" fill="#50AD5E"/>
<path transform="translate(830,629)" d="m0 0 2 1 1 10h2v10l4 6-2 11v7l6 10 8 6 9 10 5 9-1 6-11 12-11 7-17 7-10 2v-91l-2-6-3-2v-4l14-5z" fill="#089C9D"/>
<path transform="translate(779,872)" d="m0 0 12 3 4 3-3 6h-2l-2 4-5 5-4 5-2 5v12l4 9 9 8v5l-4 4 12 11-1 7 13 7 1 2-2 49-2 10-3 6-4-2-3-4-4-14-1-47-1-3-6 11-7 14h-3l-3-3v-9l5-10 4-5 7-4-17-11-6-5-6-10-4-14v-12l5-13 9-12 10-6z" fill="#F9FAFB"/>
<path transform="translate(1101,340)" d="m0 0h7l8 7 12 14 9 10 13 13 8 7 3 4v2l-11-1-58-13-14-5-22-6-19-4-2-1v-2l12-5 27-9 24-10z" fill="#F3F6F7"/>
<path transform="translate(894,713)" d="m0 0h2l5 19 1 8-2 10-6 11-3 1-2 4-6 4-4 5-1 3v9l8 17 5 9 6 5 2 1 1 11 8 7v6 4l11 5 6 1-3 2h-29v80h-1l-1-40-1-8-6 10-5-1-3-3-8 1-7-2v-5l2-5 2-2 5-1 5-8 3-4 3-13-4-8-1-6 3-7v-16l-2-9-4-8-6-13-1-2v-7l4-6 4-2 5-9 3-10 4-5 4-9 1-5-1-2-6 5 6-12z" fill="#089C9D"/>
<path transform="translate(796,579)" d="m0 0h11l10 4 9 8 6 10 2 6v12l-5 10-9 8-10 4h-18l-9-7-6-7-4-8-1-10 2-9 5-9 10-9z" fill="#FAFBFB"/>
<path transform="translate(791,961)" d="m0 0h1l1 5 1 47 5 16 3 3h4v2l4 1 1 3-2 6-4 2-4-2h-14l-10 7-6 3-5 5v6l4 5-1 6-4-2-10-9-7-7-8-7-7-6h3l3 2 2-2 1-6 6-12 10-10h2v-2l7-6 1-2h2v-2h2l1-3h2l2-5 3-11 2-7 6-12z" fill="#068D90"/>
<path transform="translate(1207,872)" d="m0 0 3 2v18l-3 17-6 20-7 20-8 18-10 21-12 22-8 14-7 11-12 17-11 14-14 17-1 2h-2l-2 4-11 12-8 8-3 2-4-1-10-11 5-4 13-10 13-12 8-8 9-11 10-12 13-18 8-13 10-16 10-19 12-23 6-18 7-16 6-25 5-21z" fill="#BFD0D8"/>
<path transform="translate(425,628)" d="m0 0 8 6 10 13 4 5 3 2h-3l-2 8-5 12-4 19-3 3h-21l-1 9 8 5 2 1-1 5-5 1-7-9v-3l-4-2 1-2v-3l2-5 2-1-2-4-10-3-11-4-5-5-11-8-12-11-7-8-2-6 9 3 9 2 5 1 16 7 10 3h13v-2l7-3 11-3 1-4-1-5-3-5z" fill="#167860"/>
<path transform="translate(669,1101)" d="m0 0 8 2 11 5 15 6 16 8 10 7 9 5 16 11 4 3v2h2l7 8v2l4 2 8 7 7 8 7 6 2 1-1-24-1-8 2 3 2 16 2 13 2 6 4-2 3-5 5-30 2-11h1l-1 14-2 12v12l5-1 8-8 16-8 13-13 7-4 12-6 9-2-3 3-10 6-11 9-9 10-1 2 20-7 34-16 6-2-3 3-23 11-10 6-18 6v1l21-3 24-5 3 1-13 4-18 4-16 2-12 5-14 10-15 14-8 8-4-1-9-7-11-10-11-8-11-5-10-4-1-2 10 3 2 1-3-5 5 2 2 1-6-8-5-6-17-13-6-4-1-2 6 2-2-5-10-7-6-1-4-5-14-8-19-10-11-4z" fill="#F2FCFC"/>
<path transform="translate(984,562)" d="m0 0h10l9 3 10 9 5 10v14l-4 10-6 8-7 5-9 3h-9l-10-4-8-8-5-9-1-13 4-11 6-8 8-7z" fill="#123B4B"/>
<path transform="translate(416,341)" d="m0 0h6l5 4 1 4-6 8-12 7-1 1 1 11 6 15 9 15 12 17 11 14 11 13 11 9 11 6 5 1 19 1 12 4 8 4 6 7 2 4-1 7-8 7-3 1h-12l-6-4-2-6 1-11 1-4-12 2-10-2-16-8-9-7-15-15-8-10-14-18-12-20-8-16-2-6v-11l3-8 8-10 6-5z" fill="#143648"/>
<path transform="translate(771,660)" d="m0 0 8 1 2 7h5l2 1 2 8 1 37v29l-12-3-20-8-12-8-6-7-2-10 2-8 6-8 9-7 7-5 5-8z" fill="#12AEA9"/>
<path transform="translate(474,304)" d="m0 0h14l9 4 13 11 17 17 7 8 13 16 9 16 3 8 3 13 1 16-2 9 4-1h10l5 3 4 5 1 2v8l-3 5-6 5-3 1h-7l-8-3-4-4-1-3v-11l1-12-2-19-5-15-6-12-8-11-9-10-7-8-12-12-11-9-8-5h-6l-15 16-6 1-5-4-1-9 10-10 8-5z" fill="#133748"/>
<path transform="translate(653,1232)" d="m0 0h55l39 1 15 2 6 5 5 5 11 8 10 4 4 1h7l10-3 19-10 9-6 11-4 6-1 44-2h54l45 2 37 3 52 3 43 2 10 2 6 7 1 6-1 1h-72l-62-4-21-2v-1l10-1 44 1 25 2 1 1 34 1h31l4-1 1-3h-2l-1-2-12-3-35-3-81-4-36-2h-17l-12-1-33 1-53 1-14 2-10 5-4 5-14 7-5 3-3 2h-15l-9-2v-2l-7-1-9-6-7-6-5-6-13-2-36-1h-84v2l-59 4-78 1-27 1-2-2 6-1 90-3 74-5z" fill="#0B857B"/>
<path transform="translate(690,493)" d="m0 0h21l61 2 82 1v1h-88l-67-2h-7v43l-1 124 7-2 3-9 2-7 3-3 4-13 1-10 1-102h1l1 38v86l-1 30-2 9-3 5-7 2-49 1h-133v48h-1l-1-49 1-1h128l18-3-1-2-9-4v-2l23-7 1-1h-72l-98 1-9 1-1 198h-1v-199l6-2 74-1 103-1 9-1 1-150z" fill="#E0ECEF"/>
<path transform="translate(1248,638)" d="m0 0 4 1v3h2v3h-2v5l-7 7-8 7-15 11-5 3-1 2-11 4-6 4 2 4-1 12h-2l-1 4-5 4-6 1-6-7-1-9 4-4-3 1-9 1-9-4-8-9-5-9-2-4-2-3-1-5 3-2 9-1v2h2l6 8 3 1h16l12-2 12-5 12-7 9-5 15-11z" fill="#167962"/>
<path transform="translate(402,603)" d="m0 0 4 2 8 7 9 10 6 7-1 2-2-2 1 8 4 6v7l-4 3-11 3-5 1v2l-2 1h-11l-12-4-9-4-7-3-9-1-9-3h-2v3l-9-10-10-14-6-11v-5l3-1h3v2l5 1v2l4 1v2l4 1v2l3 1v2l4 2 4 5 7 5 4 4v2h3v2l4 1 3 1 5-1 1-5 2-2 4-2v-2l-2-2 7-5 4-1 4-6 1-5-1-7z" fill="#339F5B"/>
<path transform="translate(1213,703)" d="m0 0h2v2h-3l1 4 9 1 10 7 8 4 2 5 8 5 3 5-16 8-19 10-19 12-12 8-1 1-1 8-2-3v-12l-1-23 3-10 10-18 10-9z" fill="#51AD5E"/>
<path transform="translate(1135,567)" d="m0 0 4 1 1 3 11 3h8l13-1 6 2 4 4v2l7 1 7-3 3-3h2l-2 4-16 14-7 8-9 9-9 11-10 13-2 2-5-13-8-16-6-11-4-10 1-7 5-9 6-2z" fill="#50AD5F"/>
<path transform="translate(468,561)" d="m0 0 5 3 6 13v11l-4 8-10 19-7 16-2 2-1 6h-1l-1-7-9-11-13-16-17-17v-2l4-1 9-2 3-5 5-5 4-3 15-2 8-4z" fill="#51AE5F"/>
<path transform="translate(839,659)" d="m0 0h12l10 4 10 6 10 9 7 11 5 12-1 7-6 3-6 5-7 8-9 9-17 10-9 2h-7l2-4 5-4 6-5 10-7 9-10 1-6-6-10-9-10-8-6-5-9v-7z" fill="#FAFBFB"/>
<path transform="translate(1255,978)" d="m0 0h12l8 3 6 8 2 5v13l-5 12-7 8-8 4-9 2-9-1-6-4-5-6-3-8v-12l4-10 5-7 8-5z" fill="#35A05D"/>
<path transform="translate(343,979)" d="m0 0 11 1 12 6 5 6 2 5 1 10-2 10-6 9-8 6-3 1h-10l-9-4-8-7-5-10-1-6v-8l3-10 7-6 4-2z" fill="#15AFAA"/>
<path transform="translate(951,373)" d="m0 0 6 1 2 8 1 7v113l1 4 1 22 2 15h-23v-17l1-12h2l1-16 4-45 1-20-2-40v-15z" fill="#F2FCFC"/>
<path transform="translate(1338,707)" d="m0 0h3l-2 12-7 19-3 6-5 1-4 2-1 2-5 3-11 7-10 7-5 1-8-3-14-1-12-2-13-1-3 1v-2l2-2 4-3 16-8 18-10 8-1 3-2h3l1-4 8-1h26l7-8 2-7 1-5z" fill="#51AE5F"/>
<path transform="translate(305,727)" d="m0 0 5 1 5 4 15 8 20 10 3 3-4 2v4l-1 5-7 2-12 1-2 4-7 1-9-3v-2l-5-1-9-4h-5l-4-2 1 4-5-5-9-14-1-8 2-2 17 1 8-8z" fill="#5FB555"/>
<path transform="translate(361,548)" d="m0 0 5 1 14 9 22 18 16 15 17 17 10 13 9 11v8l-3 11-1 2-4-1-16-20-12-14-11-12-9-11-15-16-9-11-10-12-3-5z" fill="#F9FBFB"/>
<path transform="translate(738,1244)" d="m0 0 13 1v2l4 1 2 5 4 5 5 5 9 5 24 8h14l11-3 11-6 4-2 6-8 6-10 3-2 21-1 29 1 2 1 58 1 20 1 8 1v2h-11l-19-1-51-1h-56l-7 10-6 7-10 7-13 6-7 2h-17l-14-5-9-5-10-8-5-5-7-8-3-1h-16l-62 2-39 2-28 2-56 3h-80l-14-2 1-5 2-1v4h103v-2l49-3 21-1 21-2 58-1z" fill="#098883"/>
<path transform="translate(387,773)" d="m0 0 9 3 5 5 9 6 7 4-3 2-12 3-8 7-6 7-4 2h-18l-3 1-1-2-17-4-19-8-13-9-9-8-1-4 5-2h7l9 4 8 4 16 5 19 3h23l6-2 1-4-6-3v-2h-2l-2-3z" fill="#177960"/>
<path transform="translate(794,787)" d="m0 0 7 4 8 8h3l2 1v26l-1 24h3v-2l9-5 10-9 4-3v7l10-7 7-8 4 1 9 5 1 3-6 11-7 8-13 9-13 6-8 2-11-6-8-5-1-4 2-3 1-51-8-7-5-1z" fill="#F1FCFC"/>
<path transform="translate(1069,391)" d="m0 0 9 1 29 8 25 6 2 2-13-1-1 4 2 2-2 12-4 28-7 32 1 7-4-3 2-10 7-36 4-30-5-3-6-1h-10l2 8v8l-10 54-3 4h-7l-5-2v-8l5-33 6-38-6-2-5-2-11-2 4-2z" fill="#F2FCFC"/>
<path transform="translate(320,579)" d="m0 0 9 1 4 2 8-1 12 1 13 3 7 2 4-1 4-6 4 2 4 5-1 4-1 7-3 3h-2v2l-13 5-10 3-6 2-9-1-12-6-9-5-3 1-5-14v-7z" fill="#5FB555"/>
<path transform="translate(873,1039)" d="m0 0 1 3-1 2-3 1-5 5-11 9-12 11-7 7-3 1-3 5-5 5-7 9-6 8-5 5-5-2-11-11-2-1v-2l-4-2-10-10-2-1v-2l23-1 10-2 3-3v-6l6-5 5-3h8l5 5 11-1 5-4 3-6 7-4 1-2 5-2 4-4z" fill="#068C8D"/>
<path transform="translate(692,885)" d="m0 0 3 3 3 10 4 24 2 5 4 2 4 10v55l-11-1-9-2-1-2v-103z" fill="#FCFDFD"/>
<path transform="translate(793,779)" d="m0 0h1l-1 9v65l-5-2-11-6-11-10-6-9-1-4v-8l3-10 6-8 10-8 11-7z" fill="#068E90"/>
<path transform="translate(1236,552)" d="m0 0h3l-2 6-3 4-2 5-9 10-12 11-7 7-7 8-11 12-14 14-9 11-8 10-6 7h-7l-1-6 8-16 11-14 12-13 22-22 22-18 12-10z" fill="#FCFDFD"/>
<path transform="translate(303,842)" d="m0 0h8l10 5 6 9 1 4v10l-3 7-5 6-8 4h-13l-7-4-6-7-3-9 1-10 5-8 10-6z" fill="#FDFDFD"/>
<path transform="translate(531,1163)" d="m0 0h6l4 3h76l25 2 23 4 19 2 15 2 3 3-1 2-4 1h-36l-52 1-24 2-14 2-15 4-7 3-12 5-36 12h-2l-1 7h2l-1 5-11 3h-9l2-7 12-15 3 4 13-4 16-6 14-7 23-6 24-4 36-3 14-2 1-5-34-3h-39l-9 1h-16l-5-3-5-1z" fill="#F3FDFD"/>
<path transform="translate(388,819)" d="m0 0 4 1 3 4 2 24 7 41 6 21-1 4-8-27-4-21-5-15-2-1 2 22 4 20 7 26 13 36 7 15 9 20 4 7 6 10 5 9 10 17 8 11 12 14 8 11 9 11 5 6v2h2l5 5 3-1-2-8-7-8-8-10-7-10-9-12-12-17-1-4 3 3 10 14 13 16 12 14 7 7 7 8 9 8 7 6-1 5-4 8-3 2-12-11-11-12-10-10-11-14-14-18-11-16-13-22-6-10-8-16-12-26-6-16-12-36-7-30-4-24v-28z" fill="#BFD0D8"/>
<path transform="translate(1311,765)" d="m0 0h2l-1 4-14 14-13 10-16 9-13 5-16 3-1 3v-2l-13-2-8-7-9-3-14-3-10-3 1-3h11l8 2 7 1h28l17-4 15-6 16-8h3l1-2v2l4-1v-2l3-1 1-2h4v-2z" fill="#177960"/>
<path transform="translate(1287,574)" d="m0 0h2v9l-2 6-7 1-5 2-5 4-5 5-5 3h-16l-3 1-3-1v-2l-5-1v-2l-8 2-15-3-4-1h2v-2l14-11 5-3 7-2 16-2 1-1h7l11 3 8 1v-2l5-3z" fill="#5FB555"/>
<path transform="translate(1063,397)" d="m0 0 10 1 12 5-3 22-7 46-2 8-2 2-7-1 2-2-7-6-2-9v-18l7-26 2-8v-6l-3-5z" fill="#123C4C"/>
<path transform="translate(1285,725)" d="m0 0h7l-1 4-20 12-29 15-18 10-16 10-9 6-9 7-5 1-1-7 1-8 5-4 20-13 21-12 21-10 23-9z" fill="#F9FBFC"/>
<path transform="translate(312,726)" d="m0 0h9l24 8 34 16 11 6 15 10 11 9 3 6v8l-2 1-15-9-15-10-22-12-41-21-9-6-3-3z" fill="#F4FDFD"/>
<path transform="translate(1056,822)" d="m0 0h7 3l3 8-1 14h-3l1 5 1 4-1 2-31 2h-34l-3-3 9-4 11-3 5-1 2-6 7-6h2v-2l11-7 10-2z" fill="#068E91"/>
<path transform="translate(787,955)" d="m0 0 5 2 16 8 3 3-2 49-2 10-3 6-4-2-3-4-4-14-1-47-1-3-6 11-7 14h-3l-3-3v-9l5-10 4-5 7-4z" fill="#ECF7F8"/>
<path transform="translate(814,784)" d="m0 0 6 1 13 9 6 7 5 12 1 7-6 11-11 11-10 6-4 1z" fill="#078B85"/>
<path transform="translate(1187,816)" d="m0 0h7l13 4 1 7-10 34-9 29-4 10-4 13-5 12-13 26-7 12-9 17-7 14-13 19-12 16-10 13-9 10-14 14-11 9-12 9h-2l-7-13v-3l13-7 15-14 13-13 9-11 14-19 9-12 6-10 13-22 10-19 6-13 11-27 9-31 5-19zm2 2-1 1-4 34-5 20-9 30-13 31-12 25-10 16-10 17-9 12-14 19-12 14-22 22-9 7-1 4 3 3h6l18-14 14-14 9-10 10-13 6-8 8-11 4-7 5-8 12-23 8-14 10-19 5-11 7-18 2-8 4-10 5-18 9-40v-6l-7-3z" fill="#BFD0D8"/>
<path transform="translate(908,1233)" d="m0 0h72l37 2 23 2 52 3 43 2 10 2 6 7 1 6-1 1h-72l-62-4-21-2v-1l10-1 44 1 25 2 1 1 34 1h31l4-1 1-3h-2l-1-2-12-3-35-3-81-4-36-2h-17l-12-1-33 1-53 1h-6l4-3z" fill="#0B857A"/>
<path transform="translate(398,709)" d="m0 0 5 4 10 14 10 16v19l-1 1-2 17v10l-4 1-11-6-6-5h3l15 9h1v-8l-4-7-13-10-13-8v-3l-6-2 3-2 4-1 3-4 2-9 7-6 2-9-1-4-4-5z" fill="#329E5B"/>
<path transform="translate(961,1236)" d="m0 0h18l36 2 28 3 30 2 9 3-1 3-6 1h-37l-8-1-59-2-27-2-4-4 7-3z" fill="#12AEA9"/>
<path transform="translate(1306,838)" d="m0 0 4 2 10 11 7 10 1 5-7 8-8 8-5 4-5-1-10-9-6-7-1-7 7-9 7-8z" fill="#0B8D86"/>
<path transform="translate(1070,1166)" d="m0 0 1 2-3 3-3 1h-15l-10-1h-48l-7 1-40 2-10 1v2l23 2 22 1h24l28 2 26 6 14 4 12 5 15 8 9 3 6 1 1-2v3h-9l-15-4-12-4-11-4-3-3-8-4-21-5-7-1-26-1h-80l-19 1-7 1-5-3 4-4 17-4 17-3 43-2 18-2h43l11 1h20z" fill="#F3FDFD"/>
<path transform="translate(609,563)" d="m0 0 4 1 6 19 9 3 10 4 2 4-6 3-17 2-2 16-3 5-4-2-5-18-6-2-10-1-3-2v-5l6-4 12-3 6-19z" fill="#F3F6F7"/>
<path transform="translate(1056,400)" d="m0 0 5 1v3h2l1 7-2 12-10 29-8 17h-5l-2-3v-11l3-15 4-26 3-10 3-3z" fill="#F4FEFE"/>
<path transform="translate(839,679)" d="m0 0 4 5 8 6 9 10 5 9-1 6-11 12-7 4-3-1v-2l-4-1-2-3-1-16-1-8-1-1-1-14 4-4h2z" fill="#12AEA9"/>
<path transform="translate(1338,707)" d="m0 0h3l-2 12-6 17-5 2h-3v2h-2v2l-9 6h-5v2l-7 1-12-2-7-2-2-1-1-2-7-2 3-5 10-2 3-2h3l1-4 8-1h26l7-8 2-7 1-5z" fill="#5FB556"/>
<path transform="translate(370,696)" d="m0 0 12 1 2 4 3 2 2 9-4 7-8 7-9 9-10 1h-7l-4-3-3-7 5-3 4-5 11-6 2-2 2-12z" fill="#5FB555"/>
<path transform="translate(444,990)" d="m0 0 3 3 9 16 7 11 3 8 9 12 10 14 4 5 8 11 9 11 3 4 1 6-4 2-5-4v-2h-2l-10-13-6-7-7-10-9-10-8-11-6-9-8-14v-3l6 5 1-3-8-20z" fill="#F1FBFC"/>
<path transform="translate(826,593)" d="m0 0 4 4 4 10v12l-5 10-9 8-10 4h-18l-1-2 6-2v-8l5-5 9-4 3-3 3-9 2-9 6-4z" fill="#EFFAFA"/>
<path transform="translate(984,562)" d="m0 0h10l9 3 10 9 5 10v14l-4 10-6 8-7 5-9 3h-9l-10-4-8-8-5-9-1-13 4-11 6-8 8-7zm-3 6-8 5-6 9-2 7v11l2 6 5 7 8 4 8 1 11-2 6-4 6-8 2-6v-9l-5-12-8-7-5-2z" fill="#EBF1F3"/>
<path transform="translate(1049,393)" d="m0 0 5 1 3 3 3-1h9l9 2 8 4-1 12-8 53-2 14 5 1h7l2-3 10-54v-11l2 2v12l-9 49-3 7h-10l-9-4 3-1 2-14 7-46 3-16-9-3-13-3 4 8-1 11-7 25-1 4v18l2 9 6 5 3 2-11-1-21-7-3-4 1-11 4-19 4-25 3-9 6-5-1-3zm7 7-7 2-3 4-5 25-3 19-1 5v11l2 3h5l8-17 11-33 1-13-1-2h-2l-1-4z" fill="#BFD0D8"/>
<path transform="translate(1187,1079)" d="m0 0 3 1 4 10 2 6 11 4 3 5-1 3-11 3h-2l-2 5-5 11-4-1-7-15-12-2-1-2v-6l5-3 8-2 6-15z" fill="#0B8C86"/>
<path transform="translate(332,742)" d="m0 0 6 2 15 8-4 3v4l-1 5-7 2-12 1-2 4-7 1-9-3v-2l-5-1-9-4h-5l-4-2 1 4-5-5-1-3 1-1 8 1 7 2 9-2 13-2 5-3 3-1 2-6z" fill="#51AE5F"/>
<path transform="translate(1135,567)" d="m0 0 4 1 1 3 11 3h8l13-1 6 2 4 4v2l7 1 3-1-2 4-4 4-12 2-10-2-3-1-28-2-6-2v-3h-2l1-5 3-5 6-2z" fill="#5FB555"/>
<path transform="translate(910,329)" d="m0 0v3l-6 5-3 1h-14l-9 3-5 9-8 15-12 18-10 14-7 12-7 11-9 10-2 1h-13l-20 4-1 6 3 5-8 2h-9l-1-4-3-2 1-6 5-3 13-3 17-2 15-1 4-1 1-4h2l1-4 3-6h2l1-4h2l2-5 8-11 10-14 7-10 7-14 3-9 4-9 5-5h8l12 3 6-1z" fill="#F4FEFE"/>
<path transform="translate(817,671)" d="m0 0 3 4 5 14 5 16 2 4 1 7-2 12 1 10-10 4-7 1v-29z" fill="#068D90"/>
<path transform="translate(1241,546)" d="m0 0h2l-1 6-6 10-3 2 2-5 4-7-7 4-11 9-13 11-10 8-12 11-21 21-11 14-7 10-5 11v6l7-1 7-8 6-8 12-14 19-19 7-8 11-12 8-8v3l-8 8-7 8-12 13-7 8-19 19-10 13-6 8-5 2 6 21 5 23 4 16 4 23 2 27v43l-1 12h-1v-48l-1-24-5-29-2-13-4-12-3-16-7-20-3-9-6-11-1-4 3 3 3 6 4-5 8-13 11-14 14-15 10-11 16-14 14-11 7-6 4-4 11-7z" fill="#BFD0D8"/>
<path transform="translate(1255,978)" d="m0 0h12l8 3 6 8 2 5v13l-1 3h-2l-3-11-2-2h-10-3v1l-6 1-3-2-7 2-9 2-1-2-4-1 5-9 5-5 6-4z" fill="#19AFA8"/>
<path transform="translate(476,577)" d="m0 0h3v11l-4 8-10 19-7 16-2 2-1 6h-1l-1-7-9-11-6-7-2-6 8-3 4-3 6-3h7l7-6 3-3 3-6 1-6z" fill="#319C5B"/>
<path transform="translate(986,577)" d="m0 0 9 1 7 6 1 3v11l-4 7-4 4-3 1h-7l-5-2-5-6-2-4v-8l4-8 5-4z" fill="#F7F9F9"/>
<path transform="translate(950,1235)" d="m0 0 11 1v1l-17 3-3 2 3 2 13 1v1h-60l-25-1h-18l2-1 1-3-7-1v-1l14-2 64-1z" fill="#089B9D"/>
<path transform="translate(812,886)" d="m0 0 5 2 6 4 6 7 3 5v9l-5 12-6 8-9 5-2-8 1-25z" fill="#078C87"/>
<path transform="translate(1117,362)" d="m0 0h10l5 3 7 8 11 11 7 8v3l-11-1-21-5-10-2v-2l7-1-3-3-6-3-10 1 3-2 7-4 2-2z" fill="#EDF8F9"/>
<path transform="translate(468,561)" d="m0 0 5 3 1 3-2 1-2 7h-2v2l-9 4-5 3-16 3-4 4h-2l-1 3-6 3-2-4h-2l-1-4-3-1 1-3 9-2 3-5 5-5 4-3 15-2 8-4z" fill="#5FB555"/>
<path transform="translate(417,1081)" d="m0 0 5 2 2 12 11 4 2 4-1 5-10 4-3 4-3 8h-3l-7-13-13-3-1-5 5-4 12-3 1-11 1-3z" fill="#0C8E87"/>
<path transform="translate(913,667)" d="m0 0h17l-4 3 1 3 9 4v7l149 1v1h-178l-5-2-3-6v-7h3v2l9-2v-3z" fill="#F2FCFC"/>
<path transform="translate(690,879)" d="m0 0h1l1 114h7l13 4 1-2 1 28 1 4-4-2-13-8-9-5z" fill="#BFD0D8"/>
<path transform="translate(1213,703)" d="m0 0h2v2h-3l1 4 9 1 10 7 8 4 2 5 8 5 1 3-2 1h-19l-15-7v-2h-5l-5-4-2-8 3-5z" fill="#5EB455"/>
<path transform="translate(790,789)" d="m0 0h2l1 64-5-2-11-6 2-1-2-3-1-12-1-3 4-10 2-3 1-6h2l-1-3 3-6z" fill="#13B0AA"/>
<path transform="translate(275,607)" d="m0 0h5l4 4 2 6 5 2 4 3-1 5-5 4-4 4-4 5-6 2-4-2-2-3-1-6-9-4-1-4 5-4 8-3z" fill="#FCFDFD"/>
<path transform="translate(1201,711)" d="m0 0 2 1-8 10-8 16 9 3 5 3 4 4 10 4-4 3-5 2-4 4-6 2-2 6-8 6-1 8-2-3v-12l-1-23 3-10 10-18z" fill="#309B5C"/>
<path transform="translate(1321,609)" d="m0 0 5 1 6 8 10 4-1 4-9 5-4 8-4 3-5-2-4-5v-4h-6l-5-3 1-6 9-7z" fill="#FCFDFD"/>
<path transform="translate(312,726)" d="m0 0h9l24 8 34 16 11 6 15 10 11 9 3 6v8l-2 1-15-9-15-10-22-12-41-21-9-6-3-3zm6 3v3l11 7 17 8 22 12 17 9 13 8 6 1 1-3-4-8h-2v-2l-11-7-31-15-15-6-19-7z" fill="#BFD0D8"/>
<path transform="translate(872,1244)" d="m0 0 32 1 2 1 58 1 20 1 8 1v2h-11l-19-1-51-1h-56l-7 10-6 7-10 7-13 6-7 2h-17l-6-2-1-3-5-2v-2l-7-1-3-2 1-2 10 4 15 5h14l11-3 11-6 4-2 6-8 6-10 3-2z" fill="#098880"/>
<path transform="translate(935,397)" d="m0 0h5l1 1v79l-1 6-5-1-2-1-1-3 1-18 1-61z" fill="#BFD0D8"/>
<path transform="translate(1039,498)" d="m0 0 25 3 29 4 55 11 5 2 1 2-1 13-4-4-1-3 4-1v-3l-25-5-41-7-23-3-25-5-2-1v-2z" fill="#CCDBE1"/>
<path transform="translate(759,934)" d="m0 0 4 2 5 7 14 9 7 5-3 2-5 3-8 12-3 5-5-2-4-7-1-9 1-4v-12z" fill="#089B9D"/>
<path transform="translate(792,883)" d="m0 0 1 3v40l-1 7-5-2-7-7-4-9v-12l4-8 6-7z" fill="#079092"/>
<path transform="translate(1100,351)" d="m0 0h8l6 4 3 8-1 8-7 6-6 1-8-4-5-6v-10l4-5z" fill="#123A4B"/>
<path transform="translate(904,1232)" d="m0 0h54v1l-50 1-46 2-7 3-6 2-9 4-4 5-14 7-5 3-3 2h-15l-9-2v-2l-7-1-9-6-7-6-5-6-13-2-35-1v-1h48l6 5 5 5 11 8 10 4 4 1h7l10-3 19-10 9-6 11-4 6-1z" fill="#098781"/>
<path transform="translate(454,1250)" d="m0 0 1 4h93l10-1 32-1 32-2h18l8 1v1l-46 3-56 3h-80l-14-2 1-5z" fill="#0C8478"/>
<path transform="translate(908,1233)" d="m0 0h72l37 2 21 3v2l-23-1-36-2h-17l-12-1-33 1-53 1h-6l4-3z" fill="#088983"/>
<path transform="translate(1025,378)" d="m0 0 14 3 31 8 17 4 13 4 59 14 13 4v1l-7-1-42-10-31-8-23-6-1 4-12 3-4-4-17-4h-6l-4-5z" fill="#E2EAED"/>
<path transform="translate(1027,1101)" d="m0 0 1 3 4 8-2 4-25 4-28 4-18 5-18 4-4-1 14-4 15-4 16-6 35-12 9-4z" fill="#BFD0D8"/>
<path transform="translate(578,1101)" d="m0 0 4 2 12 4 26 6 4 2-1 3 30 9 22 5 13 5-3 1-25-7-17-4-9-3-22-4-17-3-12-1-6-3 2-5 1-4z" fill="#BFD0D8"/>
<path transform="translate(619,765)" d="m0 0h35l1 1v11l-1 1h-37l-1-1v-10z" fill="#FBFCFC"/>
<path transform="translate(1131 1e3)" d="m0 0 1 3-21 28-12 14-16 16-16 12h-6l-3-3 2-5 11-9 12-12 1 2v3l7-1 10-9 9-11 10-14 9-11z" fill="#F4FEFE"/>
<path transform="translate(1124,587)" d="m0 0 4 5 7 11 5 5 11 2h7l5-1h2l-2 5-3 5-9 12-4 6-2-3-8-18-9-17-4-9z" fill="#329D5B"/>
<path transform="translate(773,1080)" d="m0 0 7 2 4 4 5 3h10l5 2 13-1 7-6 3-3v3l-10 13-6 8-5 5-5-2-11-11-2-1v-2l-4-2-11-11z" fill="#BFD0D8"/>
<path transform="translate(1016,918)" d="m0 0 6 1 16 1v18l-1 2-20 1-2-2v-20z" fill="#F3F6F7"/>
<path transform="translate(1197,923)" d="m0 0h2l-1 6-7 22-5 11-10 21-7 12-5 10-3 3-7 10h-3l6-12 11-20 5-12 8-13 10-28 5-9z" fill="#F4FEFE"/>
<path transform="translate(490,1026)" d="m0 0 7 6 7 8 12 13 7 8 10 8 4-2-1-4h2l-6-9-8-9 1-2 16 17 11 9 3 3-2 6-3 6-3 1-8-6-10-9-13-12-9-11-11-12-6-7z" fill="#C1D2D9"/>
<path transform="translate(1207,872)" d="m0 0 3 2v18l-3 17-6 20-7 20-1 2h-2l4-16 4-12-3 2-5 10h-2l3-9 4-10 6-27 4-16z" fill="#C0D0D8"/>
<path transform="translate(636,919)" d="m0 0h3v21l-1 1h-19l-2-1-1-8 1-12z" fill="#F5F8F9"/>
<path transform="translate(1236,552)" d="m0 0h3l-2 6-3 4-2 5-9 10-2 1 2-4 6-7v-4l-6 3-11 9-9 7-10 9-11 11h-2l-1 3h-2l-1 3h-2l-2 4-9 9-10 14-4 5-3 6-1 6 6-2 9-11 1-2h2v-2l5-2-6 8-10 13-3 3h-7l-1-6 8-16 11-14 12-13 22-22 22-18 12-10z" fill="#F4FEFE"/>
<path transform="translate(958,765)" d="m0 0h33l1 1v11l-1 1h-32l-2-2v-10z" fill="#F0F4F6"/>
<path transform="translate(361,548)" d="m0 0 5 1 14 9 22 18 16 15 17 17 10 13 9 11v8l-3 11-1 2-4-1-2-4h2l3 3 3-13v-5l-11-13-10-12v-2h-2l-7-8-8-7-11-11-14-11-10-7-9-5 7 11 18 20 12 14 9 10-1 2-8-8-9-11-15-16-9-11-10-12-3-5z" fill="#BFD0D8"/>
<path transform="translate(794,980)" d="m0 0 5 4 6 24 2 7v12l-3 6-4-2-3-4-3-10z" fill="#F9FBFB"/>
<path transform="translate(852,854)" d="m0 0 2 1v8l3 4-3 6h-2v3l-6 3-1 5-4-2-13-11-4-4 14-5 11-6z" fill="#078B86"/>
<path transform="translate(839,1068)" d="m0 0 2 1-9 9-4 5-3-1-2 4-3 3h-2l-1 2-14 1-4-2h-10l-5-3-4-3v-2l-3-1 18-1h26v-2l9-1z" fill="#26C6BA"/>
<path transform="translate(587,918)" d="m0 0 5 1 1 1v18l-1 2h-19l-1-1v-20z" fill="#F5F8F9"/>
<path transform="translate(564,765)" d="m0 0h33v12l-1 1h-31l-2-2v-9z" fill="#F2F6F7"/>
<path transform="translate(1009,764)" d="m0 0 32 1 1 2v10l-4 2-28-1-1-1-1-12z" fill="#F2F5F7"/>
<path transform="translate(1131,415)" d="m0 0h14l21 4-3 3-18-4h-12l1 5 6 4v10l-9 31-3 14-2 19-1 1h-6l-6-4-3-4 1-2 7 7 6 1v-14l6-31 1-22-1-17z" fill="#BFD0D8"/>
<path transform="translate(793,778)" d="m0 0h11l5 3 4 3h1l1 10v34l-1 21 2 1h-3v-50l-2 1-8-7-8-6-1 1-1 62h-1v-63z" fill="#BFD0D8"/>
<path transform="translate(516,685)" d="m0 0 2 1 1 49 1 10v83l-2 8h-1l-1-50-1-17-1-5v-10l2-12v-47l-1-6z" fill="#E9F4F6"/>
<path transform="translate(1017,954)" d="m0 0h11l9 1v18l-1 1-17 1-2-1-1-4v-15z" fill="#F5F9F9"/>
<path transform="translate(712,645)" d="m0 0h1v25l-2 9-3 5-7 2-49 1h-133v48h-1l-1-49 1-1h128l57-1 2-13 1-1h5z" fill="#BFD0D8"/>
<path transform="translate(987,919)" d="m0 0 3 1v20h-19l-2-19z" fill="#F9FAFB"/>
<path transform="translate(881,1138)" d="m0 0 2 1-10 6-13 10-7 7-4 6 20-7 34-16 6-2-3 3-23 11-10 6-18 6v1l21-3 24-5 3 1-13 4-18 4-16 2-12 5-2-1-1-8 5-2 10-14 8-4 3-3z" fill="#BFD0D8"/>
<path transform="translate(1220,433)" d="m0 0h8l6 5 1 2v12l-5 4h-8l-5-6-2-5v-8z" fill="#FDFDFD"/>
<path transform="translate(770 1e3)" d="m0 0h2l-2 4-10 10-3 8-1 7-3 5-2 12v7l-5-1-13-13 5 2h2l3-9 5-10 10-10h2v-2l7-6 1-2h2z" fill="#08999B"/>
<path transform="translate(376,428)" d="m0 0 6 1 10 6 1 4-9 8-5 4-5-1-8-9 2-5z" fill="#FDFDFD"/>
<path transform="translate(581,954)" d="m0 0h12v18l-1 1h-19v-17l1-1z" fill="#F3F6F7"/>
<path transform="translate(979,954)" d="m0 0h11l1 1v17l-1 1h-19v-17l1-1z" fill="#F3F6F7"/>
<path transform="translate(1014,480)" d="m0 0 9 1 35 6 24 5 7 3v1h-13l-34-5-12-2-12-5z" fill="#EBF6F7"/>
<path transform="translate(557,1021)" d="m0 0 4 2 10 9 7 5-1 6-5 10-4-1-12-9-5-5 7 2 2-10v-5z" fill="#EDF8F9"/>
<path transform="translate(964,587)" d="m0 0h1l2 18 5 7 8 4 8 1 16-2-2 5-10 4h-9l-10-4-8-8-5-9-1-13z" fill="#EDF3F4"/>
<path transform="translate(1130,369)" d="m0 0 4 1 15 15 8 7v3l-11-1-15-4-4-6 4-3-1-6-1-5z" fill="#FCFDFD"/>
<path transform="translate(618,955)" d="m0 0h20l1 16-1 1h-20l-1-16z" fill="#F8FAFA"/>
<path transform="translate(1077,1143)" d="m0 0 3 3v1l-9 1-55 1-27 1-50 4-11 2h-5l3-2 9-2 49-5 27-2h34l32 1z" fill="#BFD0D8"/>
<path transform="translate(1006,1250)" d="m0 0 44 1 25 2 1 1 34 1 1 2h-50l-44-3-21-2v-1z" fill="#078A86"/>
<path transform="translate(1193,691)" d="m0 0h6v13l-3 5-6 4-5-1-5-6-1-9 5-3z" fill="#BFD0D8"/>
<path transform="translate(1024,1102)" d="m0 0 2 1-11 5-36 12-16 6-20 5-17 5-4-1 5-2v-3l9-3 32-8 25-7z" fill="#068E91"/>
<path transform="translate(336,980)" d="m0 0h3v2l6-1 2 5v3l-5 1v2l-6 1v2l-4 4h-2l-1 7-3 1-2-1 1 4-2 2-1-6v-8l3-10 7-6z" fill="#2BC5BB"/>
<path transform="translate(738,1244)" d="m0 0 13 1v1l-10 1-84 1-3 1-1 2h-31l-32 2h-32v-1l49-3 21-1 21-2 58-1z" fill="#089B9D"/>
<path transform="translate(332,915)" d="m0 0 5 2 6 7 1 4-7 8-7 1-8-10 1-5z" fill="#FDFDFD"/>
<path transform="translate(348,745)" d="m0 0 10 1 18 8 9 5 7 6-1 5-5-1-10-6-27-14z" fill="#FCFDFD"/>
<path transform="translate(613,1111)" d="m0 0 10 1 12 5 6 3v2l6 2 2 1v-2l13 1 21 6 6 4v3l2 1-5-1-15-5-26-6-15-5-8-2 1-4-10-3z" fill="#068D90"/>
<path transform="translate(509,1045)" d="m0 0 6 2 1 1h6l1-3 4 2 10 12 1 4-3 7-5-2-13-12-8-10z" fill="#F4FEFE"/>
<path transform="translate(390,850)" d="m0 0 3 1 6 19 3 17 3 10-1 3-5-4v-2h-2l-1 2-4-17-2-14z" fill="#F4FDFD"/>
<path transform="translate(750,669)" d="m0 0h6l1 1v5l-9 8-5 6-5 3h-6l-2-1 1-6 4-5 13-10z" fill="#F4FEFE"/>
<path transform="translate(784,959)" d="m0 0 6 1v6l-6 10-6 12h-3l-3-3v-9l5-10 4-5z" fill="#EDF8F9"/>
<path transform="translate(1285,725)" d="m0 0h7l-1 4-20 12-29 15-2-1 18-10 22-12 7-5-11 2-14 5-21 9-17 9-11 6-8 5h-2v2l-4-1 21-13 25-13 27-11z" fill="#BFD0D8"/>
<path transform="translate(794,878)" d="m0 0 6 2 9 4 5 1-2 1v19l-1 17h-1v-22l-2 4-4-10-9-7h-1l-1 20h-1v-25z" fill="#BFD0D8"/>
<path transform="translate(527,1143)" d="m0 0h2v3h75l35 2 28 3v1h-13l-26-2-90-2h-9l-3-1z" fill="#BFD0D8"/>
<path transform="translate(904,1232)" d="m0 0h54v1l-50 1-46 2-7 3-6 2-9 4-4 5-9 3-7 2-1-2 15-8 9-6 11-4 6-1z" fill="#127D6A"/>
<path transform="translate(733,1184)" d="m0 0 16 4 14 7 9 6-1 2-4 1-19-8-16-8-2-3z" fill="#F4FEFE"/>
<path transform="translate(1090,412)" d="m0 0 4 1 1 2v9l-4 5-3 10-2 7-5-1v-12l5-12 3-8z" fill="#FCFDFD"/>
<path transform="translate(759,1164)" d="m0 0 7 6 9 11 5 6 8 7 14 11 7-1 8-7 2 1-12 12-4-1-9-7-11-10-11-8-11-5-10-4-1-2 10 3 2 1-3-5 5 2 2 1-6-8z" fill="#BFD0D8"/>
<path transform="translate(559,1238)" d="m0 0h14l-2 2-6 1-73 2-27 1-2-2 6-1z" fill="#0C8478"/>
<path transform="translate(1070,1166)" d="m0 0 1 2-3 3-3 1h-15l-10-1h-48l-7 1-19 1h-15l2-2 33-2 5-1h43l11 1h20z" fill="#F4FEFE"/>
<path transform="translate(1073,519)" d="m0 0h15l14 2 20 1 2 3-9 1v2l2 1-11-1-24-5-9-3z" fill="#1A9498"/>
<path transform="translate(947,403)" d="m0 0h1v47l-3 45h-1l-1-11-3-1v-23l2-4 1 5 2-4 1-10z" fill="#068D90"/>
<path transform="translate(937,398)" d="m0 0h3v42l-1 14h-2l-1-2-1-17 1-36z" fill="#F4FEFE"/>
<path transform="translate(787,955)" d="m0 0 5 2 16 8 3 3-1 27h-1l-1-24-3 7-2-3-1-2-5-2-2-6v-4l-2 5-3-3v-3l-4-2 2-1z" fill="#BECFD7"/>
<path transform="translate(1136,1040)" d="m0 0 1 3h-2l-1 6-9 12-11 12h-2v2l-4 1 2-6 8-10 4-6h2l2-4 3-4h2l1-3z" fill="#F4FEFE"/>
<path transform="translate(1039,498)" d="m0 0 25 3 23 3 1 2-13-1-27-4h-5l55 8 5 2v1l-10-1-30-4-25-5-2-1v-2z" fill="#BFD0D8"/>
<path transform="translate(417,1081)" d="m0 0 5 2 2 12 7 2-3 3h-2v2l-8-1-9-3 4-2 1-11 1-3z" fill="#0D9496"/>
<path transform="translate(779,872)" d="m0 0 12 3 4 3-3 6h-2l-2 4-2-4-3-2-9 1-6 2-4 2 5-7 10-6z" fill="#EEF8F9"/>
<path transform="translate(792,646)" d="m0 0 7 1 15 1 2 4v62l-1 29h-1v-90l-1-1-1 2-13-2-7-5z" fill="#BFD0D8"/>
<path transform="translate(1284,727)" d="m0 0 4 1-10 7-18 10-2-1 5-4 1-2-7 1-13 5-3-1 21-9 14-5z" fill="#F4FEFE"/>
<path transform="translate(773,1267)" d="m0 0 26 9h14l13-3-2 4-12 4h-17l-6-2-1-3-5-2v-2l-7-1-3-2z" fill="#069294"/>
<path transform="translate(1194,1097)" d="m0 0 9 1 6 4 1 4-3 3-11 2-1 3-3-3-1-5 3-1z" fill="#1C7D63"/>
<path transform="translate(1036,1031)" d="m0 0 3 4 11 1 5-1-5 5-6 5-10-1-3 1v-3l1-1-4-2 1-4z" fill="#F1FBFC"/>
<path transform="translate(922,1245)" d="m0 0 49 1 32 1 1 1 28 2v1h-40v-2l-28-1-58-1v-1z" fill="#068F91"/>
<path transform="translate(816,811)" d="m0 0h2l3 7v16l-2 7v6l-5 2v-21l1-3z" fill="#137A66"/>
<path transform="translate(591,1236)" d="m0 0h21v1l5 1v1l-50 3h-30v-1l28-1 12-3z" fill="#069091"/>
<path transform="translate(838,985)" d="m0 0 6 1 2 4-2 6-5 5-4 1-6-5-2-5h8l2-6z" fill="#079193"/>
<path transform="translate(1120,1245)" d="m0 0h11l12 3 1 3h2l-1 4-4 1h-36l-29-1v-1h63l-2-4-12-3-5-1z" fill="#068D90"/>
<path transform="translate(842,810)" d="m0 0 2 3 1 7-6 11-7 7-2-2 2-4 1-10 3-6 5-3z" fill="#079193"/>
<path transform="translate(1014,480)" d="m0 0 9 1 19 3v1h-16l11 3 29 4 10 2v-2l-3-1 9 1 7 3v1h-13l-34-5-12-2-12-5z" fill="#BFD0D8"/>
<path transform="translate(1207,820)" d="m0 0 4 2v16l-2 5h-2l-1 2-5 12-6 17-1-3 11-37 2-9z" fill="#068D90"/>
<path transform="translate(899,374)" d="m0 0 9 1 14 3v1l-12 1 1 6v17l-1 54h-1l-1-73-8-7z" fill="#068D90"/>
<path transform="translate(815,1142)" d="m0 0h1l-1 14-4 27-3 9-4 4h-3l-5-13-2-23-1-8 2 3 2 16 2 13 2 6 4-2 3-5 5-30z" fill="#BFD0D8"/>
<path transform="translate(822,615)" d="m0 0 3 1 1 5-4 7-7 6-7 1-2-4 4-4 8-7z" fill="#BFD0D8"/>
<path transform="translate(1006,1250)" d="m0 0 26 1 26 2 2 1v2h-13l-39-3-12-1v-1z" fill="#0B857A"/>
<path transform="translate(812,886)" d="m0 0 5 2 6 4 6 7 2 5h-4v-3l-7-2-4 1-2 5h-2z" fill="#146F5F"/>
<path transform="translate(1082,465)" d="m0 0h3l3 10-1 5-1 2h-9l-2-1v-8z" fill="#FCFDFD"/>
<path transform="translate(791,647)" d="m0 0 4 1 4 3 10 2v1h-16l-1 69h-1l-1-9v-43z" fill="#DEEAEE"/>
<path transform="translate(622,1248)" d="m0 0h32l-1 3h-31l-32 2h-32v-1l49-3z" fill="#079598"/>
<path transform="translate(768,945)" d="m0 0 4 1 16 10 1 2-8 4-3 4h-2v-10h-2v-2l-4-2v-3h-2l-1-3z" fill="#099394"/>
<path transform="translate(958,1091)" d="m0 0h7l-4 4-14 6-17 6h-5l3-3 21-10z" fill="#F4FEFE"/>
<path transform="translate(711,936)" d="m0 0h2l1 7v49l-2 5-13-3h-8v-5l1 2 9 1 11 2z" fill="#E3EFF1"/>
<path transform="translate(1208,857)" d="m0 0 3 4 1 5v19l-3 20h-1l1-13v-18l-2-1-5 21h-1l1-11 5-24z" fill="#068D90"/>
<path transform="translate(622,1250)" d="m0 0h18l8 1v1l-46 3h-16l4-3z" fill="#0A877E"/>
<path transform="translate(782,805)" d="m0 0h2v2h-2v7l-4 6-2 8 1 5 1 8 1 3-4-1-2-4-2-7 1-5 4-14 2-4h2z" fill="#089B9D"/>
<path transform="translate(951,1235)" d="m0 0h34l41 1 12 2v2l-23-1-36-2h-17l-11-1z" fill="#078F8F"/>
<path transform="translate(531,1163)" d="m0 0h6l4 3h76l1 2h-54l-9 1h-16l-5-3-5-1z" fill="#F4FEFE"/>
<path transform="translate(407,694)" d="m0 0 8 1-3 1-1 9 8 5 2 1-1 5-5 1-7-9v-3l-4-2 1-2v-3z" fill="#BED0D8"/>
<path transform="translate(1117,410)" d="m0 0 4 2 1 4-3 16-3 21-7 32 1 7-4-3 2-10 7-36 4-30z" fill="#BFD0D8"/>
<path transform="translate(776,971)" d="m0 0 5 1 2 3-1 6-5 8-5-4v-9l2-4z" fill="#F2F6F7"/>
<path transform="translate(793,779)" d="m0 0h1l-1 9-3 1-1 2h-3l-5 1-3-1-1 4h-2v3l-6 3 1-4 8-9 11-7z" fill="#078B85"/>
<path transform="translate(619,765)" d="m0 0h35l1 1v11l-1 1h-37v-1l33-1 2-3 1-6h-36z" fill="#D0DEE4"/>
<path transform="translate(854,1245)" d="m0 0 2 1 20 1v1l-21 1-7 10-6 7-10 7-7 3 1-4 9-5 4-2 6-8 6-10z" fill="#0D8377"/>
<path transform="translate(1236,552)" d="m0 0h3l-2 6-3 4-2 5-9 10-2 1 2-4 6-7v-4l-6 3-8 7-2-1 11-11z" fill="#EAF5F7"/>
<path transform="translate(558,527)" d="m0 0 2 1-10 9-7 8-23 23-1-3 4-5 22-22 8-7z" fill="#D8E4E8"/>
<path transform="translate(915,1110)" d="m0 0 4 1-4 1v2l-5 3-2 2-6 1v2l-4 3-6 1-2-4 3-3 12-5 9-3z" fill="#F4FEFE"/>
<path transform="translate(387,818)" d="m0 0h10l3 1-1 6-1 1v27h-1l-2-15-1-14-3-4h-3l-1 4-1 26h-1v-28z" fill="#068D90"/>
<path transform="translate(1030,1237)" d="m0 0 27 1 35 2 4 2h-23l-35-2v-2h-8z" fill="#0C8478"/>
<path transform="translate(936,459)" d="m0 0h2l1 3v19l-4 1-2-1-1-3v-8h2v-9z" fill="#EEF9FA"/>
<path transform="translate(750,1249)" d="m0 0 5 1 6 8 5 5 7 4 3 3 7 2v2l6 2v2l-5-1-12-6-10-8-5-5-7-8z" fill="#0C8479"/>
<path transform="translate(633,1233)" d="m0 0h18l-1 2-21 1v2h-21v-1l-6-1v-1z" fill="#0A8982"/>
<path transform="translate(759,1238)" d="m0 0 4 1 8 9 8 6 11 4v2l9 1v1h-7l-16-5-7-5-3-1-4-10z" fill="#079A9C"/>
<path transform="translate(883,1156)" d="m0 0 3 1-9 6h-2l1 2h9v1l-13 3-19 2 2-3 20-7z" fill="#F4FEFE"/>
<path transform="translate(782,1233)" d="m0 0 7 6 9 4h9l8-2 8-4-2 4-9 6h-12l-10-4-5-4-3-4z" fill="#068D90"/>
<path transform="translate(1274,920)" d="m0 0h5l1 2v11l-2 3-5-1-2-9z" fill="#1D948F"/>
<path transform="translate(1114,346)" d="m0 0 5 5 10 11-1 2-1-1h-11l-3-8-3-3h4z" fill="#E4F0F2"/>
<path transform="translate(965,349)" d="m0 0 10 2 4 2-1 2h-2v2l-7 3h-5l-1-7z" fill="#EFF9FA"/>
<path transform="translate(1055,1035)" d="m0 0 2 1-9 8-12 8-5-5-6-8 1-3 3 1 1 3 4 1-3 1v3l4-2 9 1z" fill="#BFD0D8"/>
<path transform="translate(1084,794)" d="m0 0h1v61h-1l-1-8h-3l-3-1 1-6 3-1v-2h2z" fill="#14B1AB"/>
<path transform="translate(1187,1079)" d="m0 0 3 1 4 10-2 4h-5l-5-7 2-6z" fill="#1B7D65"/>
<path transform="translate(1222,765)" d="m0 0 2 1-16 10-9 6-9 7-5 1-1-7 1-8 5-4 4-3 2 1-8 6-1 3v8l4-1 11-8z" fill="#BFD0D8"/>
<path transform="translate(713,992)" d="m0 0h1l1 11v16l3 2v2l2 1 2 3 2 8-4-2-6-5-1-5z" fill="#23C3B8"/>
<path transform="translate(794,906)" d="m0 0 5 1 1 2-1 16-1 2-4 1z" fill="#FDFDFD"/>
<path transform="translate(1121,406)" d="m0 0 10 1 12 5v1l-14 1-10-3z" fill="#FCFDFD"/>
<path transform="translate(775,624)" d="m0 0 4 4 7 8 4 4-2 1v2l-7-2-6-9z" fill="#14B0AB"/>
<path transform="translate(751,1246)" d="m0 0 5 1 9 7 6 9v2h2l-1 2-8-5-5-5-4-5v-4z" fill="#079799"/>
<path transform="translate(972,568)" d="m0 0 3 4-6 8-3 9-2-1-4 1 1-6 6-10z" fill="#DFECEF"/>
<path transform="translate(454,1250)" d="m0 0 1 4 44 1-1 2h-42l-4-1 1-5z" fill="#078A84"/>
<path transform="translate(791,961)" d="m0 0h1l1 5v42h-1l-1-30-2-4-4 1 1-5 4-7z" fill="#0FA09C"/>
<path transform="translate(1137,425)" d="m0 0 5 1 2 4-6 19-7 24-2 4 1-9 9-31 1-10-3-1z" fill="#068D90"/>
<path transform="translate(1150,385)" d="m0 0 4 2 7 8v2l-11-1-40-9v-1l10 1 37 8-3-5z" fill="#BFD0D8"/>
<path transform="translate(816,713)" d="m0 0h2l2 13-2 9-1 8h-2v-29z" fill="#0C9792"/>
<path transform="translate(876,519)" d="m0 0h17l-1 8h-6l-10-7z" fill="#12AEA9"/>
<path transform="translate(844,357)" d="m0 0h1l1 19-1 1h-31l-1 9h-1v-10l1-2h31z" fill="#BFD0D8"/>
<path transform="translate(1063,423)" d="m0 0 1 4-3 11-1 10v14l2 12-3-2-2-9v-18z" fill="#068D90"/>
<path transform="translate(948,341)" d="m0 0 6 2 10 3-5 5-2 4-5-1-2-10z" fill="#068D90"/>
<path transform="translate(879,675)" d="m0 0 5 2 5 5 3 9 2 4-1 4-2-1-8-16-4-5z" fill="#08989A"/>
<path transform="translate(1082,492)" d="m0 0 9 1 16 3 5-1 5 6-21-3-12-1 4-2-6-2z" fill="#068D90"/>
<path transform="translate(657,1247)" d="m0 0h11l7 1 22 1v1l-28 1h-16l1-3z" fill="#0D8276"/>
<path transform="translate(411,726)" d="m0 0 4 4 8 13v19l-1 1-2 16h-1v-12l1-6v-18l-9-15z" fill="#167860"/>
<path transform="translate(369,556)" d="m0 0 7 3 12 8 2 3-11-3-2 2-8-11z" fill="#F4FDFD"/>
<path transform="translate(417,1081)" d="m0 0 5 2 1 7-3 3h-5l-1-1v-7l1-3z" fill="#159186"/>
<path transform="translate(469,1241)" d="m0 0h52v1l-56 2-2-2z" fill="#068B88"/>
<path transform="translate(1196,819)" d="m0 0 5 1 2 1-1 10-6 26h-1l1-9 2-17 2-8z" fill="#F4FEFE"/>
<path transform="translate(1189,1113)" d="m0 0 4 1v2l-1 5-3 6-4-1-2-6 1-2h2v-2h4z" fill="#187B63"/>
<path transform="translate(517,837)" d="m0 0h1v19l-5 6-2 4-1 7-7 2 4-5 3-11 5-4 1-3z" fill="#F4FEFE"/>
<path transform="translate(1077,394)" d="m0 0 7 1 8 4v3l-3 1-9-3-5-2z" fill="#FBFDFD"/>
<path transform="translate(819,1276)" d="m0 0h5l-2 2-10 3h-17l-6-2 3-2 7 1h12z" fill="#0B857B"/>
<path transform="translate(1140,520)" d="m0 0 10 1 2 1v3l-3 2 3 5-4-2v-2l-8-1v-2h-2l1-3h4z" fill="#068D90"/>
<path transform="translate(788,1078)" d="m0 0 33 1v1l-26 1h-23v-2z" fill="#0EA3A0"/>
<path transform="translate(622,1250)" d="m0 0h18l8 1v1l-30 2h-13v-1l12-1z" fill="#0F8070"/>
<path transform="translate(460,1245)" d="m0 0h8l2 1v2h-2l-1 3-11 1 1-4z" fill="#24C5B9"/>
<path transform="translate(519,845)" d="m0 0h1v10l4-4 3 2 41 1v1l-49 1z" fill="#26C7BB"/>
<path transform="translate(841,759)" d="m0 0h3l1 6-4 3-4-2-4-3v-2z" fill="#0DA1A1"/>
<path transform="translate(394,757)" d="m0 0 10 5v2l10 5 4 7-1 2-4-5-15-11-5-4z" fill="#51AE5F"/>
<path transform="translate(559,1238)" d="m0 0h14l-2 2-6 1-36-1v-1z" fill="#107E6C"/>
<path transform="translate(738,1244)" d="m0 0 13 1v1l-10 1h-27l3-2z" fill="#079496"/>
<path transform="translate(861,1235)" d="m0 0m-11 1h11l-3 2-9 3-9 4-2 1v-4z" fill="#0B867D"/>
<path transform="translate(793,779)" d="m0 0h1l-1 9-3 1-1 2-2-5-5 1v-2z" fill="#1C8C6C"/>
<path transform="translate(557,1021)" d="m0 0 4 2 10 9 7 5-1 6-4 5 2-10-14-12z" fill="#BFD0D8"/>
<path transform="translate(1103,669)" d="m0 0h1l-1 7-9 7-5 8-3-1 1-4 5-5 10-9z" fill="#F4FEFE"/>
<path transform="translate(781,985)" d="m0 0 2 2v8l-7 8-4 2 1-3h2l2-5 3-11z" fill="#089B9D"/>
<path transform="translate(792,907)" d="m0 0h1v19l-1 7-3-1v-7l-1-4v-2l3-2z" fill="#13ACA8"/>
<path transform="translate(851,1245)" d="m0 0 3 1-5 5-6 11-3 1-1 3-1-2 3-3 2-5 1-5 4-4z" fill="#079A9C"/>
<path transform="translate(714,1235)" d="m0 0h45v3l-10-1-35-1z" fill="#068F91"/>
<path transform="translate(936,1127)" d="m0 0 3 1h-2l-1 4-7 3-7 1 3-3h2v-3z" fill="#0A8F8A"/>
<path transform="translate(1201,711)" d="m0 0 2 1-8 10-9 17-2 1 2-6 9-17z" fill="#29925C"/>
<path transform="translate(791,647)" d="m0 0 4 1 4 3 10 2v1h-16l-1 8h-1z" fill="#E6F2F4"/>
<path transform="translate(812,373)" d="m0 0 1 3v30l-4 1 2-3-1-29z" fill="#0F8174"/>
<path transform="translate(817,1254)" d="m0 0 2 1-5 5-3 1-17-1v-2h11l10-3z" fill="#0E8174"/>
<path transform="translate(601,1236)" d="m0 0h11v1l5 1v1l-14 1h-14v-1z" fill="#079392"/>
<path transform="translate(1069,391)" d="m0 0 9 1 6 2-3 1-5 1-1 1-11-1 4-2z" fill="#F4FEFE"/>
<path transform="translate(642,1248)" d="m0 0h12l-1 3h-13l-17-1v-1z" fill="#068C8B"/>
<path transform="translate(882,1234)" d="m0 0m-20 1h20v2l-8 1h-16z" fill="#068B88"/>
<path transform="translate(943,532)" d="m0 0 1 2 3 1 4 5v2h-9v-8z" fill="#FDFDFD"/>
<path transform="translate(617,1234)" d="m0 0h13l-2 2h-11v2h-9v-1l-6-1v-1z" fill="#0D8275"/>
<path transform="translate(1197,766)" d="m0 0h4v2h-2l-2 4-6 5-4 1 1-4 7-5z" fill="#EFFAFB"/>
<path transform="translate(770,1266)" d="m0 0 3 1 3 3 7 2v2l6 2v2l-5-1-12-6z" fill="#0B857C"/>
<path transform="translate(1272,996)" d="m0 0 4 1 3 5v5h-3v-2h-2l-2-6-2-2z" fill="#4FAE60"/>
<path transform="translate(1217,583)" d="m0 0 2 1-6 8-3 3h-2v2h-2l-1 2v-3z" fill="#58B15D"/>
<path transform="translate(977,1248)" d="m0 0 15 1v2h-11l-19-1v-1z" fill="#0F8071"/>
<path transform="translate(776,1181)" d="m0 0 5 1 5 5v4l-4-2-5-5z" fill="#FAFDFD"/>
<path transform="translate(1035,955)" d="m0 0h2v18l-1 1-17 1-2-1 1-4v3l16-1 1-2z" fill="#BFD0D8"/>
<path transform="translate(827,1252)" d="m0 0 3 1-9 5-7 4h-7l4-2 5-1 2-4z" fill="#079698"/>
<path transform="translate(1118 1e3)" d="m0 0v3l-10 14-7 8v-3l10-13z" fill="#F4FEFE"/>
<path transform="translate(1127,597)" d="m0 0 3 1 7 12 5 11v2h-2l-8-17z" fill="#167860"/>
<path transform="translate(1030,1237)" d="m0 0 27 1-3 2h-16v-2h-8z" fill="#0E8173"/>
<path transform="translate(820,846)" d="m0 0h4l1 3-4 4-4 1-1-3 2-4z" fill="#F6F8F9"/>
<path transform="translate(509,759)" d="m0 0 3 3-1 11-3 1v-13z" fill="#F4FEFE"/>
<path transform="translate(884,682)" d="m0 0 4 2 6 11-1 4-2-1-7-14z" fill="#07908F"/>
<path transform="translate(462,617)" d="m0 0 1 2-5 12-2 2-1 6h-1v-7l4-9z" fill="#137B67"/>
<path transform="translate(813,1203)" d="m0 0v3l-8 7h-3l-3-5-2-1v-2l5 2 2 2 4-1z" fill="#068D90"/>
<path transform="translate(535,1159)" d="m0 0h5l3 3 3 1 21 1v1h-23l-9-5z" fill="#068D90"/>
<path transform="translate(306,862)" d="m0 0 3 1v6l-2 2-4-1v-5l3-1z" fill="#F4FEFE"/>
<path transform="translate(773,1267)" d="m0 0 26 9-3 1-20-6-3-2z" fill="#07989A"/>
<path transform="translate(1006,1250)" d="m0 0h10l1 3-21-1v-1z" fill="#0E8173"/>
<path transform="translate(752,1168)" d="m0 0 6 2 4 5v2l-10-3 2-2z" fill="#E6F2F4"/>
<path transform="translate(1134,647)" d="m0 0 3 3 4 6 2 8 1 5-4-5-3-9-3-5z" fill="#F4FEFE"/>
<path transform="translate(836,1266)" d="m0 0h2l-1 4-12 6 1-4 9-5z" fill="#0A8880"/>
<path transform="translate(591,1236)" d="m0 0h10l-2 2-10 1-12-1v-1z" fill="#107F6E"/>
<path transform="translate(870,1072)" d="m0 0 2 1-17 17-2-1 12-12z" fill="#E7EFF1"/>
<path transform="translate(502,494)" d="m0 0 7 1 3 3 3 1v2h-6l-6-4z" fill="#187565"/>
<path transform="translate(1102,364)" d="m0 0 5 2 1 5-4 1-3-4z" fill="#C8D8DF"/>
<path transform="translate(655,766)" d="m0 0 4 2-1 9-3 1z" fill="#11ADA8"/>
<path transform="translate(1110,485)" d="m0 0h5l1 6-4 1-2-2z" fill="#FDFDFD"/>
<path transform="translate(1118,362)" d="m0 0h9v5l-3 1-4-3v-2z" fill="#FCFDFD"/>
<path transform="translate(778,788)" d="m0 0 2 1-3 6h-2v3l-6 3 1-4z" fill="#078D88"/>
<path transform="translate(399,779)" d="m0 0 5 2 13 8-1 2-11-6-6-5z" fill="#3EA45C"/>
<path transform="translate(730,670)" d="m0 0 2 1-13 13-2-1 8-9z" fill="#E1EBEE"/>
<path transform="translate(839,1068)" d="m0 0 2 1-12 12-1-1-7-1v-1l9-1z" fill="#14AFAA"/>
<path transform="translate(872,1158)" d="m0 0 4 1-15 6-4-1 8-4z" fill="#068D90"/>
<path transform="translate(669,1101)" d="m0 0 8 2 9 5-2 1-13-5z" fill="#F4FEFE"/>
<path transform="translate(521,844)" d="m0 0 3 3 1 3h-2l-1 5h-2v-10z" fill="#12AEA9"/>
<path transform="translate(813,778)" d="m0 0 3 1 1 5h-4l-1 2-2-5z" fill="#EFF9FA"/>
<path transform="translate(1008,607)" d="m0 0 1 3-3 4 3-1-1 3-5 3-1-3-3-1 6-4z" fill="#D8E4E9"/>
<path transform="translate(830,1247)" d="m0 0 2 1-2 4-10 3-1-2z" fill="#0D8276"/>
<path transform="translate(768,923)" d="m0 0h2l5 9-1 2-5-4z" fill="#F4FEFE"/>
<path transform="translate(411,706)" d="m0 0 7 4v5l-4-2-3-4z" fill="#F4FEFE"/>
<path transform="translate(873,1039)" d="m0 0 1 3-1 2-3 1-1 2h-4l2-4z" fill="#099697"/>
<path transform="translate(965,581)" d="m0 0h1v8l-2-1-4 1 1-6z" fill="#E8EEF1"/>
<path transform="translate(1167,1099)" d="m0 0h5l-1 5h-6l1-4z" fill="#147963"/>
<path transform="translate(469,1241)" d="m0 0h12l-3 2-13 1-2-2z" fill="#0E8275"/>
<path transform="translate(798,1103)" d="m0 0 7 1 1 4h-5l-3-3z" fill="#ECF7F8"/>
<path transform="translate(653,766)" d="m0 0h2v11h-5l2-4z" fill="#DFECEF"/>
<path transform="translate(1027,387)" d="m0 0 9 1 9 2 2 2-12-2h-6z" fill="#BFD0D8"/>
<path transform="translate(563,1102)" d="m0 0 2 1-11 11-2-1 8-9z" fill="#D5E0E5"/>
<path transform="translate(690 1e3)" d="m0 0 1 2h2l1 8-4-2z" fill="#F4FEFE"/>
<path transform="translate(783,1273)" d="m0 0 9 2 7 2-4 1h-6l-1-2-5-2z" fill="#068C8E"/>
<path transform="translate(839,659)" d="m0 0h12v1h-9l-1 3-4 2z" fill="#E1EEF0"/>
<path transform="translate(1153,389)" d="m0 0 4 3v3l-11-1v-1h7z" fill="#F4FEFE"/>
</svg>
